<?xml version="1.0" encoding="utf-8"?>
<!-- Generator: Adobe Illustrator 22.0.1, SVG Export Plug-In . SVG Version: 6.00 Build 0)  -->
<svg version="1.1" id="Layer_1" xmlns="http://www.w3.org/2000/svg" xmlns:xlink="http://www.w3.org/1999/xlink" x="0px" y="0px"
	 viewBox="0 0 983.6 384.7" style="enable-background:new 0 0 983.6 384.7;" xml:space="preserve">
<style type="text/css">
	.st0{fill:#1B2635;}
	.st1{opacity:0.4;fill:#2E3C4F;}
	.st2{opacity:0.4;fill:#3B4A5D;}
	.st3{fill:#C8AA53;}
	.st4{fill:#A4791D;}
	.st5{fill:#DFC976;}
	.st6{fill:none;}
	.st7{fill:#E5E5E5;}
	.st8{fill:#F7931E;}
	.st9{font-family:'Apple-Chancery';}
	.st10{font-size:72px;}
</style>
<g>
	<g>
		<rect y="0.3" class="st0" width="984" height="383.1"/>
	</g>
	<path class="st1" d="M68,0.3v383.1h467.4V0.3H68z M369.3,147.7c-5.9,7.5-5.6,17.7,1.5,25c2.2,2.2,4.8,4,7.7,5.2
		c-1.7,3.8-1,8.3,2.2,11.6c1.5,1.5,3.3,2.6,5.3,3.3c0.4,1.6,1.3,3.2,2.5,4.6c-0.3,0.2-0.5,0.3-0.8,0.5c-6.5,4.7-7.3,13.1-1.8,18.8
		c0,0,0,0,0,0c-10.1,8.1-12,21.3-4.6,31.2c-1.8,0.6-3.5,1.4-5,2.5c-3.4,2.4-5.3,5.8-5.9,9.2c-3.4-1.8-8-1.6-11.2,0.7
		c-3.7,2.7-4.4,7.4-1.8,10.8c-6.5-2.5-14.4-1.7-20.2,2.5c-3.2,2.3-5.3,5.4-6.2,8.7c-5.1-2.8-12-2.5-16.8,1.1c-2.9,2.1-4.6,5.1-5,8.2
		c-0.3-0.3-0.5-0.6-0.8-0.9c-10.8-11.1-30-12.5-42.8-3.1c-2.6,1.9-4.7,4.1-6.4,6.5c-0.3-1.5-1-3-2.3-4.3c-0.8-0.8-1.8-1.5-2.8-2
		c3.6-5.4,3.1-12.5-1.8-17.5c-6.3-6.5-17.5-7.3-25-1.8c-2.3,1.7-3.9,3.7-5,5.9c-3-3.1-8-3.8-12-2c-0.4-3.8-2.1-7.6-5.2-10.7
		c-3.7-3.8-8.7-6-13.9-6.6c2.6-2.8,2.7-6.8-0.1-9.7c-1.8-1.8-4.3-2.7-6.9-2.7c2.5-5.3,1.6-11.6-3-16.3c-3.2-3.3-7.7-5.2-12.4-5.6
		c1.6-2.6,1.5-5.7-0.4-8.3c0.7-0.4,1.3-0.8,2-1.2c7.5-5.5,8.7-15,2.8-21.7c0.1-0.1,0.2-0.1,0.2-0.2c6.3-4.6,7.1-12.7,1.8-18.2
		c-1.2-1.2-2.6-2.2-4.1-2.9c0.5-2,0.2-4.1-0.9-6c4.7,0.3,9.5-0.9,13.4-3.8c4.5-3.3,6.7-7.9,6.6-12.6c5.5,0.1,11-1.5,15.5-4.8
		c1.9-1.4,3.5-3,4.8-4.7c2.9,1.1,6.4,0.8,9-1.1c3.6-2.6,4.1-7.3,1.1-10.4c5.2,0.6,10.7-0.6,15.1-3.7c2.9-2.1,4.9-4.8,5.9-7.7
		c0.4,1,1,2,1.9,2.9c3.7,3.8,10.3,4.3,14.7,1.1c1.4-1,2.4-2.2,3-3.6c6.4,3.5,15,3.3,21.1-1.2c1.6-1.2,2.9-2.6,3.9-4
		c3.6,0.7,7.5,0,10.6-2.1c0.8,2.1,2.1,4.2,3.9,6c4.3,4.4,10.6,6.5,16.7,6.3c0.1,3.7,1.6,7.4,4.6,10.5c6.4,6.5,17.4,7.7,25.4,3.1
		c0.3,0.4,0.6,0.7,0.9,1.1c3.2,3.3,7.8,4.9,12.3,4.7c-0.6,2.3,0,4.8,1.9,6.8C364.2,146.8,366.7,147.7,369.3,147.7z"/>
	<path class="st2" d="M68,0.3v383.1h467.4V0.3H68z M407.9,301.9c-14.3-4.4-30.8-0.3-40,11c-2.8,3.5-4.7,7.3-5.6,11.2
		c-6.8-0.7-13.9,1.8-18.1,7c-1.9,2.3-3,4.9-3.4,7.6c-2.5,1.1-4.7,2.7-6.5,4.7c-0.4-0.3-0.7-0.5-1.1-0.8c-10.1-6.1-24-4.1-31.2,4.7
		c0,0,0,0-0.1,0.1c-16.9-9.3-38.9-6.7-52.3,5.8c-1.6-2-3.6-3.7-6-5.2c-5.2-3.2-11.3-4.3-17.2-3.7c1.7-4.8-0.3-10.2-5.3-13.3
		c-5.8-3.5-13.6-2.7-18.3,1.7c1.6-8.8-2.5-18.1-11.5-23.6c-5-3-10.7-4.4-16.4-4.4c2.6-7.2-0.3-15.4-7.9-20c-4.6-2.8-10-3.7-15.1-3.1
		c0.4-0.4,0.8-0.8,1.2-1.3c14-17.2,9.2-40.9-10.6-52.9c-4-2.4-8.4-4.2-12.8-5.3c2.4-0.9,4.5-2.4,6.1-4.3c1.1-1.3,1.8-2.7,2.2-4.1
		c10.2,2.4,21.4-0.8,27.8-8.6c8.2-10,5.4-23.9-6.2-31c-3.5-2.1-7.5-3.4-11.5-3.9c3.9-4.8,3.2-11.1-1.1-15.3
		c6.1-1.9,11.6-5.3,15.5-10.2c4.8-5.8,6.5-12.7,5.7-19.2c5.5,2.2,12.1,0.8,15.7-3.6c2.3-2.8,2.8-6.3,1.8-9.3
		c9.6,1.1,19.5-2.3,25.4-9.6c4.2-5.1,5.6-11.2,4.5-17c4.7,0.9,9.8-0.3,13.3-3.5c0.9,0.7,1.7,1.3,2.7,1.9c11.6,7.1,27.6,5,36.3-4.6
		c0.1,0.1,0.2,0.2,0.4,0.2c9.8,5.9,23.3,3.9,30.2-4.5c1.5-1.9,2.6-3.9,3.2-6c3.4-0.2,6.7-1.3,9.4-3.3c1.2,5.8,5,11.2,11,14.8
		c6.9,4.2,15.3,5.2,22.9,3.4c1.9,6.7,6.4,12.8,13.4,17c3,1.8,6.2,3.1,9.4,4c-0.7,3.9,1.1,8,5.1,10.5c5.6,3.4,13.3,2.3,17.3-2.5
		c0.9,6.5,4.8,12.8,11.6,16.9c4.5,2.7,9.6,4.1,14.7,4.3c-1.5,0.9-2.9,2-4,3.4c-4.8,5.9-3.2,14,3.7,18.2c2.1,1.3,4.5,2.1,6.9,2.3
		c-3.4,9.1,0.2,19.3,9.7,25.1c2.5,1.5,5.2,2.6,8,3.2c0.2,4.6,2.7,9.1,7.2,12c-3.2,1.7-6,4-8.3,6.8c-5.6,6.8-6.7,15.2-4.1,22.5
		c-6,1.4-11.5,4.6-15.4,9.4c-8.3,10.1-6.2,23.8,4.2,31.9c-0.5,0.5-0.9,1-1.4,1.5c-4.1,5-5.1,11.2-3.2,16.7c-4,0.1-7.8,1.8-10.3,4.8
		C407.5,295.4,406.9,298.8,407.9,301.9z"/>
	<g>
		<path class="st3" d="M297.8,224.8c-23.3,0-42.3-16.3-42.3-36.5c0-17.9,14.9-32.8,34.7-35.9c-2.8-0.4-5.6-0.6-8.5-0.6
			c-28.9,0-52.3,20.2-52.3,45.1s23.4,45.1,52.3,45.1c23.7,0,43.7-13.6,50.1-32.2C324.1,218.9,311.8,224.8,297.8,224.8z"/>
		<polygon class="st4" points="226.9,273.7 218.2,269.8 211.2,275.8 212.8,267.4 204,263.6 213.7,262.3 215.3,253.9 219.7,261.5 
			229.4,260.1 222.5,266.1 		"/>
		<polygon class="st4" points="366,356.5 372.4,349.7 369.5,341.2 379,344.4 387.4,339.4 386.9,348.1 395,353.5 385.2,355.8 
			381.8,364.1 376.2,356.7 		"/>
		<polygon class="st3" points="223.8,118.8 218.6,117.9 214.9,121.2 214.2,116.6 209.5,114.6 214.3,112.6 215.1,108.1 218.7,111.4 
			223.9,110.7 221.4,114.7 		"/>
		<polygon class="st3" points="238.9,68.9 236.2,62 228,60 234.7,55.6 234.4,48.3 241.3,52.5 249.2,49.9 246.8,56.9 252.1,62.6 
			243.6,62.8 		"/>
		<polygon class="st5" points="463.7,287.5 445.3,286.2 433.6,298.5 429.4,283 412.2,277.2 428,269 429,253.1 443,263.5 
			460.9,259.4 453.8,274.1 		"/>
		<polygon class="st3" points="149,151.8 147.8,147.6 142.9,146 147.3,143.7 147.5,139.2 151.4,142.1 156.4,140.9 154.5,145 
			157.3,148.6 152.2,148.4 		"/>
		<polygon class="st5" points="114.4,220 121.5,207.8 113.9,195.8 129.6,197.9 140.5,187.9 143,201.4 157.3,207.3 143.2,213.5 
			141.2,227.1 130,217.4 		"/>
		<polygon class="st3" points="337.9,284.1 332,286.1 330.5,291.4 326.5,287.2 320.2,287.6 323.6,283 321.2,278 327.3,279.4 
			332.2,275.8 332.5,281.3 		"/>
		<polygon class="st5" points="206.6,326.6 201.5,323.9 196.1,326 197.5,321.1 193.5,317.2 199.4,316.8 202.4,312.4 204.7,317.1 
			210.5,318.2 206,321.5 		"/>
		<polygon class="st3" points="384.6,202.3 377,201.5 371.9,206.4 370.5,199.9 363.6,197.3 370.3,194.1 371,187.6 376.6,192.1 
			384,190.7 380.7,196.7 		"/>
		<polygon class="st3" points="403.4,106.4 401.3,113 406.3,118.2 398.4,118.5 394.1,124.2 391.4,117.8 383.8,116.1 390,111.9 
			389.5,105.1 396.1,108.9 		"/>
		<polygon class="st4" points="283.8,348.4 280.5,346.8 277.1,348.2 277.9,345 275.2,342.6 279,342.2 280.8,339.4 282.4,342.4 
			286.1,343 283.3,345.2 		"/>
		<polygon class="st4" points="305.5,105.1 304.8,101.9 301.3,100.6 304.6,99 304.9,95.7 307.7,97.9 311.4,97.1 309.8,100.1 
			311.8,102.9 308,102.6 		"/>
		<polygon class="st5" points="433.3,178 434.7,175 432.6,172.2 436.4,172.5 438.8,169.9 439.7,173.1 443.3,174.2 440.1,176 
			439.9,179.2 437,177.1 		"/>
		<polygon class="st3" points="171.6,260.4 166.9,262.4 166.1,266.9 162.5,263.6 157.3,264.4 159.8,260.4 157.3,256.4 162.5,257.2 
			166.1,253.9 166.9,258.4 		"/>
	</g>
	<g>
		<path class="st6" d="M443.5,375.8c0-15.4,14.5-27.9,32.3-27.9c0.7,0,1.4,0.1,2.1,0.1c0.3-3.7,1.4-7.1,3.2-10.2
			c-2.1-3.4-3.3-7.3-3.3-11.4c0-9.2,5.9-17.1,14.6-21.2c-2.7-5.3-4.2-11.1-4.2-17.3c0-19.9,15.5-36.6,36.7-41.7
			c-4.1-3-6.7-7.5-6.7-12.5c0-5.3,2.9-10,7.5-13c-7.5-5.1-12.3-13.1-12.3-22c0-0.9,0.1-1.9,0.2-2.8c-20.1-2-35.8-16.7-35.8-34.6
			c0-8.4,3.4-16.1,9.2-22.1c-10.3-6.8-17-17.5-17-29.5c0-5,1.2-9.7,3.2-14.1c-8.2-0.3-15.5-3.8-20.2-9c-3.9,1.2-8.2,1.9-12.6,1.9
			c-16.8,0-31-9.5-35.7-22.7c-3.1,1.5-6.6,2.3-10.4,2.3c-12.1,0-21.9-8.4-21.9-18.9c0-2.4,0.5-4.7,1.5-6.9
			c-6.2,3.4-13.6,5.4-21.5,5.4c-11.9,0-22.6-4.5-29.9-11.6c-0.2,8.5-8.2,15.3-18.1,15.3c-7.1,0-13.2-3.5-16.2-8.7
			c-4.7,1.3-9.8,2-15,2c-12.4,0-23.7-4-32.3-10.5c-7.2,7.6-18.1,12.5-30.3,12.5c-10.6,0-20.2-3.7-27.3-9.6c-1.2,4.3-4,8-7.9,10.6
			c1.3,2.9,2,6.1,2,9.4c0,14.9-14,27-31.3,27c-0.2,0-0.4,0-0.6,0c-1.1,17.5-17.9,31.5-38.5,31.5c-1.7,0-3.4-0.1-5.1-0.3
			c-1,6.2-5.8,11.4-12.3,13.7c6.8,6,11,14.3,11,23.3c0,12.9-8.4,24-20.8,29.6c4.2,2.9,6.9,7.3,6.9,12.3c0,7.8-6.5,14.2-15,15.6
			c7.3,7.1,11.8,16.5,11.8,26.8c0,8.6-3.2,16.6-8.5,23.2c9.2,1.7,16,8.8,16.1,17.2c5.2-2.3,11-3.7,17.3-3.7
			c20.6,0,37.2,14.4,37.2,32.1c0,13.9-10.2,25.7-24.6,30.2c0.9,2,1.4,4.2,1.4,6.5c0,3.5-1.1,6.7-3,9.5c6.4-1.9,13.2-2.9,20.3-2.9
			c26.8,0,49.8,14.3,59.1,34.6h216.5c8.3-4.3,17.8-7,28.1-7.4C443.5,375.9,443.5,375.8,443.5,375.8z"/>
		<path class="st7" d="M984,0.3H297h-33.8H0v383.1h198.8c-9.4-20.3-32.3-34.6-59.1-34.6c-7.1,0-13.9,1-20.3,2.9c1.9-2.8,3-6,3-9.5
			c0-2.3-0.5-4.5-1.4-6.5c14.3-4.5,24.6-16.3,24.6-30.2c0-17.7-16.7-32.1-37.2-32.1c-6.2,0-12.1,1.3-17.3,3.7
			c0-8.4-6.9-15.5-16.1-17.2c5.4-6.6,8.5-14.6,8.5-23.2c0-10.3-4.5-19.6-11.8-26.8c8.6-1.3,15-7.8,15-15.6c0-5-2.7-9.4-6.9-12.3
			c12.3-5.6,20.8-16.7,20.8-29.6c0-9.1-4.2-17.3-11-23.3c6.5-2.3,11.3-7.5,12.3-13.7c1.7,0.2,3.3,0.3,5.1,0.3
			c20.6,0,37.4-13.9,38.5-31.5c0.2,0,0.4,0,0.6,0c17.3,0,31.3-12.1,31.3-27c0-3.3-0.7-6.5-2-9.4c3.9-2.6,6.7-6.4,7.9-10.6
			c7,5.9,16.7,9.6,27.3,9.6c12.2,0,23.2-4.9,30.3-12.5c8.7,6.5,19.9,10.5,32.3,10.5c5.2,0,10.3-0.7,15-2c3,5.1,9.1,8.7,16.2,8.7
			c9.9,0,17.9-6.8,18.1-15.3c7.4,7.1,18,11.6,29.9,11.6c7.9,0,15.3-2,21.5-5.4c-1,2.1-1.5,4.4-1.5,6.9c0,10.4,9.8,18.9,21.9,18.9
			c3.8,0,7.3-0.8,10.4-2.3c4.7,13.1,18.9,22.7,35.7,22.7c4.4,0,8.6-0.7,12.6-1.9c4.7,5.3,11.9,8.7,20.2,9c-2.1,4.3-3.2,9.1-3.2,14.1
			c0,12.1,6.7,22.7,17,29.5c-5.7,6-9.2,13.7-9.2,22.1c0,17.9,15.6,32.7,35.8,34.6c-0.1,0.9-0.2,1.8-0.2,2.8c0,8.9,4.8,16.8,12.3,22
			c-4.6,3-7.5,7.7-7.5,13c0,5,2.6,9.5,6.7,12.5c-21.1,5.1-36.7,21.8-36.7,41.7c0,6.2,1.5,12,4.2,17.3c-8.7,4.1-14.6,12.1-14.6,21.2
			c0,4.1,1.2,8,3.3,11.4c-1.8,3.1-2.9,6.6-3.2,10.2c-0.7,0-1.4-0.1-2.1-0.1c-17.8,0-32.3,12.5-32.3,27.9c0,0,0,0.1,0,0.1
			c-10.3,0.4-19.9,3.1-28.1,7.4H984V0.3z"/>
	</g>
</g>
<rect x="546" y="169.3" class="st6" width="376.8" height="91"/>
<text transform="matrix(1 0 0 1 618.5098 231.5667)" class="st8 st9 st10">Contact</text>
</svg>
