<?xml version="1.0" encoding="utf-8"?>
<!-- Generator: Adobe Illustrator 22.0.1, SVG Export Plug-In . SVG Version: 6.00 Build 0)  -->
<svg version="1.1" id="Layer_1" xmlns="http://www.w3.org/2000/svg" xmlns:xlink="http://www.w3.org/1999/xlink" x="0px" y="0px"
	 viewBox="0 0 1394 572" style="enable-background:new 0 0 1394 572;" xml:space="preserve">
<style type="text/css">
	.st0{fill:#1B2635;}
	.st1{opacity:0.4;fill:#2E3C4F;}
	.st2{opacity:0.4;fill:#3B4A5D;}
	.st3{fill:#E5E5E5;}
	.st4{fill:#C8AA53;}
	.st5{fill:#A4791D;}
	.st6{fill:#DFC976;}
	.st7{fill:#F7931E;}
	.st8{font-family:'Apple-Chancery';}
	.st9{font-size:81.125px;}
</style>
<g>
	<rect y="-0.2" class="st0" width="1394" height="572.2"/>
	<path class="st1" d="M1386,122.7c-7,0-13.4,2.1-18.6,5.5c-9.5-12-25-19.9-42.5-19.9c-11.6,0-22.3,3.5-31,9.3
		c-5-5.7-12.7-9.3-21.3-9.3c-6.8,0-13.1,2.3-17.9,6.1c-11.3-10.9-27.3-17.7-45-17.7c-34.2,0-61.9,25.2-61.9,56.4
		c0,3.2,0.4,6.3,0.9,9.4c-20.1,4.2-37.4,15.4-48.4,30.6c-5.8-7.9-15.7-13.1-26.9-13.1c-10.2,0-19.3,4.3-25.2,11
		c-12.5-7-27.2-11-42.9-11c-26.5,0-50.1,11.5-65.1,29.2c-5.1-2.4-10.9-3.8-17-3.8c-19.2,0-34.9,13.3-36.7,30.3
		c-11.1-9.9-26.3-16.1-43-16.1c-13.7,0-26.3,4.1-36.5,11c-5.8-6.7-14.7-11-24.8-11c-12.9,0-23.9,7-28.8,17.1
		c-12.3-6-26.3-9.4-41.3-9.4c-29,0-54.8,12.9-70.6,32.8c-8-5.2-17.7-8.3-28.3-8.3c-8.7,0-16.8,2.1-23.9,5.7
		C576.5,242,556.2,232,533.2,232c-15.7,0-30.2,4.8-42,12.7c-6.4-7.8-16.6-12.8-28.2-12.8c-5.8,0-11.3,1.3-16.1,3.6
		c-11.8-23.1-37.6-39.2-67.5-39.2c-21.5,0-40.8,8.3-54.4,21.5c-11-14.7-29.5-24.4-50.6-24.4c-4.3,0-8.5,0.4-12.5,1.2
		c-14.7-20.3-40-33.7-68.8-33.7c-18.1,0-34.9,5.3-48.5,14.4c-9.7-10.8-24.4-17.7-40.9-17.7c-2.5,0-4.9,0.2-7.2,0.5
		c-11.5-18-31.4-31-54.9-34.3c0.3-1.7,0.5-3.4,0.5-5.1C42.2,100.2,26,85.5,6,85.5C4,85.5,2,85.7,0,86v172.5v202.4h688.9
		c7.4,1.9,15.2,2.9,23.2,2.9c8.1,0,15.9-1,23.3-2.9H1394V179v-55.4C1391.4,123,1388.7,122.7,1386,122.7z"/>
	<path class="st2" d="M8,242.9c7,0,13.4,2.1,18.6,5.5c9.5-12,25-19.9,42.5-19.9c11.6,0,22.3,3.5,31,9.3c5-5.7,12.7-9.3,21.3-9.3
		c6.8,0,13.1,2.3,17.9,6.1c11.3-10.9,27.3-17.7,45-17.7c34.2,0,61.9,25.2,61.9,56.4c0,3.2-0.4,6.3-0.9,9.4
		c20.1,4.2,37.4,15.4,48.4,30.6c5.8-7.9,15.7-13.1,26.9-13.1c10.2,0,19.3,4.3,25.2,11c12.5-7,27.2-11,42.9-11
		c26.5,0,50.1,11.5,65.1,29.2c5.1-2.4,10.9-3.8,17-3.8c19.2,0,34.9,13.3,36.7,30.3c11.1-9.9,26.3-16.1,43-16.1
		c13.7,0,26.3,4.1,36.5,11c5.8-6.7,14.7-11,24.8-11c12.9,0,23.9,7,28.8,17.1c12.3-6,26.3-9.4,41.3-9.4c29,0,54.8,12.9,70.6,32.8
		c8-5.2,17.7-8.3,28.3-8.3c8.7,0,16.8,2.1,23.9,5.7c12.8-15.5,33.2-25.6,56.2-25.6c15.7,0,30.2,4.8,42,12.7
		c6.4-7.8,16.6-12.8,28.2-12.8c5.8,0,11.3,1.3,16.1,3.6c11.8-23.1,37.6-39.2,67.5-39.2c21.5,0,40.8,8.3,54.4,21.5
		c11-14.7,29.5-24.4,50.6-24.4c4.3,0,8.5,0.4,12.5,1.2c14.7-20.3,40-33.7,68.8-33.7c18.1,0,34.9,5.3,48.5,14.4
		c9.7-10.8,24.4-17.7,40.9-17.7c2.5,0,4.9,0.2,7.2,0.5c11.5-18,31.4-31,54.9-34.3c-0.3-1.7-0.5-3.4-0.5-5.1
		c0-18.2,16.2-32.9,36.2-32.9c2.1,0,4.1,0.2,6,0.5v172.5v165.8H705.1c-7.4,1.9-15.2,2.9-23.2,2.9c-8.1,0-15.9-1-23.3-2.9H0V299.3
		v-55.4C2.6,243.3,5.3,242.9,8,242.9z"/>
	<path class="st3" d="M1386,311.8c-7,0-13.4,2.1-18.6,5.5c-9.5-12-25-19.9-42.5-19.9c-11.6,0-22.3,3.5-31,9.3
		c-5-5.7-12.7-9.3-21.3-9.3c-6.8,0-13.1,2.3-17.9,6.1c-11.3-10.9-27.3-17.7-45-17.7c-34.2,0-61.9,25.2-61.9,56.4
		c0,3.2,0.4,6.3,0.9,9.4c-20.1,4.2-37.4,15.4-48.4,30.6c-5.8-7.9-15.7-13.1-26.9-13.1c-10.2,0-19.3,4.3-25.2,11
		c-12.5-7-27.2-11-42.9-11c-26.5,0-50.1,11.5-65.1,29.2c-5.1-2.4-10.9-3.8-17-3.8c-19.2,0-34.9,13.3-36.7,30.3
		c-11.1-9.9-26.3-16.1-43-16.1c-13.7,0-26.3,4.1-36.5,11c-5.8-6.7-14.7-11-24.8-11c-12.9,0-23.9,7-28.8,17.1
		c-12.3-6-26.3-9.4-41.3-9.4c-29,0-54.8,12.9-70.6,32.8c-8-5.2-17.7-8.3-28.3-8.3c-8.7,0-16.8,2.1-23.9,5.7
		c-12.8-15.5-33.2-25.6-56.2-25.6c-15.7,0-30.2,4.8-42,12.7c-6.4-7.8-16.6-12.8-28.2-12.8c-5.8,0-11.3,1.3-16.1,3.6
		c-11.8-23.1-37.6-39.2-67.5-39.2c-21.5,0-40.8,8.3-54.4,21.5c-11-14.7-29.5-24.4-50.6-24.4c-4.3,0-8.5,0.4-12.5,1.2
		c-14.7-20.3-40-33.7-68.8-33.7c-18.1,0-34.9,5.3-48.5,14.4c-9.7-10.8-24.4-17.7-40.9-17.7c-2.5,0-4.9,0.2-7.2,0.5
		c-11.5-18-31.4-31-54.9-34.3c0.3-1.7,0.5-3.4,0.5-5.1c0-18.2-16.2-32.9-36.2-32.9c-2.1,0-4.1,0.2-6,0.5v172.5V572h1394V368.2v-55.4
		C1391.4,312.2,1388.7,311.8,1386,311.8z"/>
	<g>
		<path class="st4" d="M721.2,258.9c-32.8,0-59.4-24.2-59.4-54c0-26.5,21-48.6,48.7-53.2c-3.9-0.6-7.9-0.9-11.9-0.9
			c-40.6,0-73.6,30-73.6,66.9s32.9,66.9,73.6,66.9c33.3,0,61.4-20.1,70.5-47.7C758.2,250.3,740.8,258.9,721.2,258.9z"/>
		<polygon class="st5" points="494.8,53.1 482.6,47.4 472.8,56.3 475,43.9 462.7,38.2 476.3,36.3 478.5,23.9 484.7,35.1 498.3,33.1 
			488.6,42 		"/>
		<polygon class="st5" points="831,102.1 840,91.9 835.9,79.4 849.3,84 861,76.6 860.3,89.6 871.8,97.5 857.9,101 853.2,113.3 
			845.3,102.4 		"/>
		<polygon class="st4" points="1031,138.5 1023.7,137.2 1018.4,142 1017.5,135.3 1010.9,132.2 1017.6,129.3 1018.8,122.7 
			1023.8,127.6 1031.2,126.5 1027.6,132.5 		"/>
		<polygon class="st4" points="1048.9,40.1 1044.9,29.9 1033.5,27 1043,20.4 1042.4,9.6 1052.2,15.8 1063.4,12 1059.9,22.4 
			1067.3,30.8 1055.4,31.1 		"/>
		<polygon class="st6" points="1203,94.9 1177.1,93 1160.7,111.3 1154.7,88.3 1130.5,79.7 1152.7,67.4 1154.2,43.9 1173.9,59.3 
			1199,53.3 1189,75.1 		"/>
		<polygon class="st4" points="541.7,132.3 539.9,126 533.2,123.7 539.3,120.2 539.5,113.7 545.1,117.8 552,116.1 549.4,122.2 
			553.4,127.6 546.2,127.2 		"/>
		<polygon class="st6" points="336.2,94.9 346.3,76.9 335.6,59.1 357.6,62.2 372.9,47.4 376.4,67.4 396.6,76.1 376.7,85.4 
			373.9,105.5 358.1,91.2 		"/>
		<polygon class="st4" points="193.2,77.6 184.9,80.5 182.8,88.4 177.2,82.1 168.3,82.7 173.1,75.9 169.7,68.4 178.3,70.5 
			185.1,65.2 185.6,73.3 		"/>
		<polygon class="st6" points="101.6,142 94.5,138 86.9,141.1 88.9,133.8 83.3,128.1 91.6,127.5 95.8,120.9 99,128 107.1,129.5 
			100.8,134.5 		"/>
		<polygon class="st4" points="1314.7,177.1 1304.1,175.8 1296.9,183.1 1295,173.5 1285.2,169.6 1294.6,164.9 1295.7,155.2 
			1303.5,161.9 1313.9,159.9 1309.3,168.7 		"/>
		<polygon class="st4" points="1341.6,65.2 1338.5,74.9 1345.6,82.7 1334.5,83.1 1328.5,91.6 1324.7,82.1 1313.9,79.5 1322.7,73.3 
			1322,63.2 1331.3,68.9 		"/>
		<polygon class="st5" points="217.8,217.7 213.2,215.3 208.4,217.4 209.5,212.6 205.8,209.1 211.1,208.6 213.7,204.3 215.8,208.8 
			221.1,209.7 217.1,212.9 		"/>
		<polygon class="st5" points="1164.1,218.5 1163,213.7 1158.1,211.9 1162.7,209.4 1163.1,204.6 1167.1,207.9 1172.3,206.7 
			1170.1,211.2 1172.9,215.3 1167.6,214.8 		"/>
		<polygon class="st6" points="669.4,60.7 671.4,56.1 668.4,52.1 673.8,52.4 677.1,48.6 678.4,53.4 683.4,55.1 678.9,57.6 
			678.6,62.5 674.5,59.4 		"/>
		<polygon class="st4" points="52.4,43.9 45.8,46.8 44.7,53.4 39.6,48.6 32.4,49.8 35.8,43.9 32.4,37.9 39.6,39.1 44.7,34.3 
			45.8,40.9 		"/>
	</g>
	<g>
		<polygon class="st4" points="1125.2,510.3 1104.7,528.9 1084.2,510.3 1104.7,491.6 		"/>
		<polygon class="st4" points="305.9,510.3 285.4,528.9 264.9,510.3 285.4,491.6 		"/>
	</g>
</g>
<text transform="matrix(1 0 0 1 339.0005 524.7021)" class="st7 st8 st9">Visual Media Design</text>
</svg>
